# xmcd
#
# Track frame offsets:
#	150
#	12600
#	25985
#	40205
#	52660
#	67417
#	80135
#	93687
#	106790
#	121755
#	136115
#	149560
#	163802
#	177595
#	189630
#	203485
#	218395
#	232687
#	249102
#	263105
#	276025
#	289267
#	303507
#	317055
#	330957
#
# Disc length: 4604 seconds
#
# Revision: 1
# Processed by: cddbd v1.5.2PL0 Copyright (c) Steve Scherf et al.
# Submitted via: audiograbber 1.83.01
#
DISCID=6311fa19
DTITLE=Lonnie Johnson - Complete Chronological 1925-32 v.2
DYEAR=1900
DGENRE=
TTITLE0=Oh Doctor The Blues
TTITLE1=Sweet Woman, See For Yourself
TTITLE2=To Do This, You Got To Know How
TTITLE3=South Bound Water
TTITLE4=Treat 'Em Right
TTITLE5=Baby, Will You Please Come Home
TTITLE6=I Done Tole You
TTITLE7=Steppin' On The Blues
TTITLE8=A Broken Heart That Never Smiles
TTITLE9=Black Cat Blues 
TTITLE10=A Worried Woman's Blues
TTITLE11=Superstitious Blues
TTITLE12=Cotton Patch Blues
TTITLE13=Blackbird Blues
TTITLE14=Unkind Mama
TTITLE15=Four Hands Are Better Than Two
TTITLE16=Woke Up With The Blues In My Fingers
TTITLE17=Back-Water Blues
TTITLE18=I Love You, Mary-Lou
TTITLE19=Sweet Woman You Can't Go Wrong
TTITLE20=Mean Old Bed Bug Blues
TTITLE21=Lonesome Ghost Blues
TTITLE22=Fickle Mama Blues
TTITLE23=Roaming Rambler Blues
TTITLE24=Stay Out Of Walnut Street Alley
EXTD=DOCD-5064
EXTT0=
EXTT1=
EXTT2=
EXTT3=
EXTT4=
EXTT5=
EXTT6=
EXTT7=
EXTT8=
EXTT9=(Helen Humes vcl)
EXTT10=(Helen Humes vcl)
EXTT11=Joe Brown vcl
EXTT12=Joe Brown vcl
EXTT13=Raymond Boyd vcl
EXTT14=Raymond Boyd vcl
EXTT15=
EXTT16=
EXTT17=
EXTT18=
EXTT19=
EXTT20=
EXTT21=
EXTT22=
EXTT23=
EXTT24=
PLAYORDER=
